<?xml version="1.0" encoding="utf-8"?>
<!-- Generator: Adobe Illustrator 22.0.0, SVG Export Plug-In . SVG Version: 6.00 Build 0)  -->
<svg version="1.0" id="Layer_1" xmlns="http://www.w3.org/2000/svg" xmlns:xlink="http://www.w3.org/1999/xlink" x="0px"
  y="0px" viewBox="0 0 4000 3000" style="enable-background:new 0 0 4000 3000;" xml:space="preserve">
  <style type="text/css">
    .st0 {
      fill: #1B75BC;
    }

    .st1 {
      fill: #7319ce;
    }
  </style>
  <path class="st0"
    d="M1293.4,2774.3c0,0,824.7,567.9,1708.6-138.3l260.9,173.9c18.5,12.3,42.6-3.9,38.2-25.7l-203.4-1003.6
	c-3.7-18.2-21.9-29.6-40-25l-854.4,221.5c-19.4,5-25.2,29.8-10.1,42.9l303.8,264.2C2497.1,2284.4,2508.2,2882.9,1293.4,2774.3z" />
  <path class="st1" d="M1831.8,2657.3c40.5,0,80.6-1.8,120.5-5.4c165.1-36.9,267.1-96.3,330-153c72.7-65.6,99.9-133.4,110-174.8
	l-9.8-8.5c-162.9,91.7-350.8,144.1-550.8,144.1c-621,0-1126.2-505.2-1126.2-1126.2S1210.8,207.3,1831.8,207.3
	S2958,712.5,2958,1333.5c0,126.4-20.9,247.9-59.5,361.4l134.5-34.9c26.8-7,55.2-5.1,80.8,4.9c27.8-107.6,41.8-218.5,41.8-331.5
	c0-178.7-35-352-104.1-515.3c-66.7-157.6-162.1-299.2-283.6-420.7c-121.5-121.5-263.1-217-420.7-283.6
	C2183.8,44.8,2010.5,9.8,1831.8,9.8s-352,35-515.3,104.1c-157.6,66.7-299.2,162.1-420.7,283.6C774.3,519,678.8,660.6,612.2,818.2
	c-69.1,163.3-104.1,336.6-104.1,515.3s35,352,104.1,515.3c66.7,157.6,162.1,299.2,283.6,420.7c121.5,121.5,263.1,217,420.7,283.6
	C1479.8,2622.3,1653.2,2657.3,1831.8,2657.3z" />
  <path class="st0" d="M2211.7,1384.4c-27.6-44.5-65.7-79.6-114.5-105.3c-44-23.2-109.6-45.7-196.7-67.5c-9.4-2.4-19.1-4.7-29.1-7.1
	c-42.7-10.1-78.8-20-108.2-29.8c-40.7-13.5-68.7-26.6-84-39.5c-20.7-17.4-31.1-38.4-31.1-62.9c0-26.9,11.1-48.3,33.2-64.3
	c21.9-15.9,49.2-26.8,81.9-32.5c18.6-3.3,38.8-4.9,60.9-4.9c29.1,0,54.6,2.9,76.4,8.5c22.5,5.8,41.2,14.7,56.1,26.5
	c29.4,23.3,48.6,61.6,57.6,114.8l209.2-9.2c-3.3-95.2-37.8-171.3-103.5-228.3c-52.6-45.6-125.7-72.9-219.4-82.1V612.6h-137.3v187.6
	c-53.1,4.8-100.1,15.9-140.9,33.3c-56.3,24-99.4,59-129.3,105c-29.9,45.9-44.9,95.3-44.9,148.1c0,82,31.8,151.5,95.4,208.5
	c43,38.5,116.2,71.3,219.7,98.3c5.4,1.4,10.8,2.8,16.3,4.2c51.1,12.7,91.4,23.1,120.9,31.3c20.9,5.8,36.4,10.4,46.6,13.9
	c35.8,12.7,60.9,27.7,75.3,44.9c14.4,17.2,21.6,38,21.6,62.5c0,38.2-17.1,71.5-51.2,100c-23.1,19.3-53.8,32-92.1,38.3
	c-18.3,3-38.4,4.5-60.2,4.5c-28.3,0-54-3.2-77.1-9.5c-28.9-7.9-53.7-20.8-74.5-38.6c-37.5-32-62.3-82.2-74.6-150.5l-203.5,19.8
	c13.7,115.9,55.6,204.2,125.8,264.7c56.2,48.4,131.7,77.5,226.8,87.2v188.4h137.3v-187c63-4.6,117.3-16.5,163.2-35.6
	c60.3-25.2,107-63.7,139.9-115.5c33-51.8,49.5-107.4,49.5-166.8C2253.1,1484,2239.3,1429,2211.7,1384.4z" />
</svg>
